HIERARCHY
ROOT Hips
{
	OFFSET 53.753399 -0.553584 96.938904
	CHANNELS 6 Xposition Yposition Zposition Xrotation Yrotation Zrotation
	JOINT spine
	{
		OFFSET 0.000000 -0.458068 7.965683
		CHANNELS 3 Xrotation Yrotation Zrotation
		JOINT spine1
		{
			OFFSET 0.000000 -0.000002 10.243103
			CHANNELS 3 Xrotation Yrotation Zrotation
			JOINT spine2
			{
				OFFSET 0.000000 -0.000002 9.814751
				CHANNELS 3 Xrotation Yrotation Zrotation
				JOINT Neck
				{
					OFFSET 0.000000 -1.201384 25.198601
					CHANNELS 3 Xrotation Yrotation Zrotation
					JOINT Head
					{
						OFFSET 0.000000 -0.000001 7.613144
						CHANNELS 3 Xrotation Yrotation Zrotation
						End Site
						{
							OFFSET 0.000000 6.077327 18.428101
						}
					}
				}
				JOINT RightShoulder
				{
					OFFSET -4.132702 0.575449 10.599205
					CHANNELS 3 Xrotation Yrotation Zrotation
					JOINT RightArm
					{
						OFFSET 0.000000 -0.000002 13.901794
						CHANNELS 3 Xrotation Yrotation Zrotation
						JOINT RightArmRoll
						{
							OFFSET 0.000000 -0.000001 7.017883
							CHANNELS 3 Xrotation Yrotation Zrotation
							JOINT RightForeArm
							{
								OFFSET 0.000000 -0.000003 20.440598
								CHANNELS 3 Xrotation Yrotation Zrotation
								JOINT RightForeArmRoll
								{
									OFFSET 0.000000 -0.000001 7.875153
									CHANNELS 3 Xrotation Yrotation Zrotation
									JOINT RightHand
									{
										OFFSET 0.000000 -0.000003 15.803696
										CHANNELS 3 Xrotation Yrotation Zrotation
										End Site
										{
											OFFSET 0.000000 0.000000 0.100006
										}
									}
								}
							}
						}
					}
				}
				JOINT LeftShoulder
				{
					OFFSET 4.132702 0.575449 10.599205
					CHANNELS 3 Xrotation Yrotation Zrotation
					JOINT LeftArm
					{
						OFFSET 0.000000 -0.000002 13.901794
						CHANNELS 3 Xrotation Yrotation Zrotation
						JOINT LeftArmRoll
						{
							OFFSET 0.000000 -0.000001 7.017883
							CHANNELS 3 Xrotation Yrotation Zrotation
							JOINT LeftForeArm
							{
								OFFSET 0.000000 -0.000003 20.440598
								CHANNELS 3 Xrotation Yrotation Zrotation
								JOINT LeftForeArmRoll
								{
									OFFSET 0.000000 -0.000001 7.875153
									CHANNELS 3 Xrotation Yrotation Zrotation
									JOINT LeftHand
									{
										OFFSET 0.000000 -0.000003 15.803696
										CHANNELS 3 Xrotation Yrotation Zrotation
										End Site
										{
											OFFSET 0.000000 0.000000 0.100006
										}
									}
								}
							}
						}
					}
				}
			}
		}
	}
	JOINT RightUpLeg
	{
		OFFSET -7.060482 1.086090 -1.294701
		CHANNELS 3 Xrotation Yrotation Zrotation
		JOINT RightUpLegRoll
		{
			OFFSET 0.000000 -0.000003 18.530800
			CHANNELS 3 Xrotation Yrotation Zrotation
			JOINT RightLeg
			{
				OFFSET 0.000000 0.000004 -22.947601
				CHANNELS 3 Xrotation Yrotation Zrotation
				JOINT RightLegRoll
				{
					OFFSET 0.000000 -0.000004 23.022598
					CHANNELS 3 Xrotation Yrotation Zrotation
					JOINT RightFoot
					{
						OFFSET 0.000000 -0.000003 19.162506
						CHANNELS 3 Xrotation Yrotation Zrotation
						JOINT RightToeBase
						{
							OFFSET 0.000000 -0.000003 16.018799
							CHANNELS 3 Xrotation Yrotation Zrotation
							End Site
							{
								OFFSET 0.006790 0.894205 7.757812
							}
						}
					}
				}
			}
		}
	}
	JOINT LeftUpLeg
	{
		OFFSET 7.060482 1.086090 -1.294701
		CHANNELS 3 Xrotation Yrotation Zrotation
		JOINT LeftUpLegRoll
		{
			OFFSET 0.000000 -0.000003 18.530899
			CHANNELS 3 Xrotation Yrotation Zrotation
			JOINT LeftLeg
			{
				OFFSET 0.000000 -0.000004 22.947502
				CHANNELS 3 Xrotation Yrotation Zrotation
				JOINT LeftLegRoll
				{
					OFFSET 0.000000 -0.000004 23.235504
					CHANNELS 3 Xrotation Yrotation Zrotation
					JOINT LeftFoot
					{
						OFFSET 0.000000 -0.000003 18.949600
						CHANNELS 3 Xrotation Yrotation Zrotation
						JOINT LeftToeBase
						{
							OFFSET 0.000000 -0.000003 16.018799
							CHANNELS 3 Xrotation Yrotation Zrotation
							End Site
							{
								OFFSET -0.030430 0.894205 7.757812
							}
						}
					}
				}
			}
		}
	}
}
MOTION
Frames: 6
Frame Time: 0.041667
54.069107 -0.678348 97.046295 -5.998718 -0.508929 6.649542 -0.768785 -0.067088 -0.272814 2.464957 -0.133000 -0.554234 4.109995 -0.148555 -0.552605 8.644622 -1.910029 0.185890 17.706760 -1.871254 0.840611 -17.147229 -72.602391 -20.405258 -64.076204 -123.143256 -75.203463 -0.000002 -0.000045 0.000000 101.773002 0.262879 -7.418086 0.000005 0.000004 -3.000001 -5.000203 -7.999121 0.000102 -8.254245 56.752008 9.586336 -45.359437 121.083230 49.798851 -0.000001 0.000000 -0.000000 105.398507 -0.156955 6.009215 -0.000006 -0.000025 3.000001 -5.000162 7.998746 -0.000158 1.880421 -177.186513 3.970882 -179.999991 0.000005 -1.146005 172.300743 -3.041389 -0.623974 -0.000002 0.000004 0.118033 70.042743 6.884572 2.076705 25.456955 -7.355613 -0.000001 5.815393 177.189519 -1.474264 -0.000005 -0.000005 -1.214560 -5.036867 2.893253 0.235334 0.000001 -0.000000 -0.050223 68.497884 -6.919730 -2.093027 25.456952 7.355612 0.000001 
54.077408 -0.667811 97.061295 -5.997599 -0.511325 6.654489 -0.768193 -0.066904 -0.272721 2.466137 -0.132586 -0.554089 4.111175 -0.147903 -0.552471 8.616792 -1.908766 0.177992 17.778009 -1.891405 0.839259 -17.148141 -72.599706 -20.406256 -64.089994 -123.287933 -75.180958 -0.000001 -0.000046 0.000000 101.749246 0.246655 -7.388375 0.000003 0.000005 -3.000000 -5.000207 -7.999124 0.000101 -8.240911 56.753186 9.570502 -45.454591 121.199835 49.861136 -0.000000 0.000001 0.000000 105.354302 -0.147770 5.979925 -0.000005 -0.000027 3.000000 -5.000163 7.998745 -0.000158 1.865070 -177.176487 3.975555 -179.999991 0.000005 -1.144994 172.275771 -3.042198 -0.625432 -0.000003 0.000004 0.118939 70.055160 6.884587 2.076039 25.456959 -7.355614 -0.000000 5.819460 177.193521 -1.469918 -0.000005 -0.000004 -1.214440 -5.016524 2.891819 0.234232 0.000000 -0.000000 -0.050040 68.490535 -6.919837 -2.093107 25.456952 7.355611 0.000002 
54.075508 -0.656056 97.060791 -5.997032 -0.514402 6.660222 -0.767306 -0.066676 -0.272658 2.467917 -0.132189 -0.553806 4.112955 -0.147132 -0.552198 8.584254 -1.903747 0.169125 17.852825 -1.916381 0.838045 -17.151049 -72.595506 -20.409420 -64.102705 -123.431354 -75.163274 -0.000000 -0.000045 -0.000000 101.726256 0.231155 -7.360734 0.000004 0.000005 -3.000001 -5.000207 -7.999124 0.000102 -8.227684 56.754364 9.554805 -45.548623 121.321099 49.926156 -0.000001 -0.000000 -0.000000 105.309783 -0.138651 5.952633 -0.000004 -0.000025 3.000001 -5.000160 7.998744 -0.000157 1.853845 -177.164479 3.984228 -179.999991 0.000005 -1.144994 172.255937 -3.047010 -0.626161 -0.000002 0.000004 0.119708 70.062892 6.884549 2.075652 25.456957 -7.355613 -0.000001 5.820860 177.197496 -1.465532 -0.000005 -0.000004 -1.214289 -5.003753 2.890779 0.233531 0.000001 -0.000000 -0.050086 68.486956 -6.919838 -2.093034 25.456952 7.355613 0.000001 
54.074909 -0.648889 97.059692 -5.996915 -0.517975 6.666648 -0.766175 -0.066421 -0.272614 2.470186 -0.131827 -0.553395 4.115224 -0.146279 -0.551802 8.547675 -1.895535 0.159390 17.930485 -1.945402 0.836906 -17.155707 -72.590007 -20.414491 -64.112896 -123.573873 -75.148644 0.000001 -0.000045 0.000000 101.703825 0.216496 -7.335187 0.000004 0.000004 -3.000001 -5.000202 -7.999126 0.000101 -8.214384 56.755553 9.539004 -45.643169 121.445258 49.996356 -0.000002 0.000001 0.000000 105.264854 -0.129824 5.925397 -0.000005 -0.000026 3.000000 -5.000160 7.998748 -0.000155 1.846255 -177.151475 3.996222 -179.999991 0.000005 -1.144994 172.240705 -3.055820 -0.627173 -0.000003 0.000004 0.120351 70.066280 6.884531 2.075538 25.456959 -7.355614 -0.000001 5.819834 177.202469 -1.461125 -0.000005 -0.000004 -1.214140 -4.997662 2.890109 0.233177 0.000000 -0.000000 -0.050335 68.486614 -6.919743 -2.093036 25.456952 7.355613 0.000001 
54.077209 -0.643728 97.057198 -5.997135 -0.521854 6.673718 -0.764851 -0.066155 -0.272585 2.472837 -0.131518 -0.552870 4.117875 -0.145380 -0.551291 8.507729 -1.884686 0.148895 18.010399 -1.977689 0.835787 -17.161853 -72.583444 -20.421197 -64.121864 -123.714971 -75.138330 -0.000002 -0.000045 0.000001 101.681873 0.202535 -7.310713 0.000004 0.000005 -3.000001 -5.000208 -7.999122 0.000101 -8.200773 56.756652 9.522850 -45.735394 121.573556 50.068872 0.000001 -0.000001 -0.000000 105.219317 -0.120783 5.900138 -0.000007 -0.000025 3.000001 -5.000165 7.998746 -0.000158 1.841825 -177.136476 4.010894 -179.999991 0.000005 -1.144994 172.229613 -3.067623 -0.628386 -0.000003 0.000004 0.120879 70.066061 6.884527 2.075550 25.456960 -7.355614 -0.000000 5.816630 177.206444 -1.457003 -0.000005 -0.000004 -1.213970 -4.997380 2.889812 0.233127 0.000000 -0.000000 -0.050757 68.489182 -6.919525 -2.093033 25.456953 7.355612 0.000001 
54.063507 -0.634573 97.059196 -5.997615 -0.525854 6.681325 -0.763389 -0.065893 -0.272563 2.475756 -0.131279 -0.552244 4.120794 -0.144474 -0.550676 8.465082 -1.871759 0.137746 18.092049 -2.012450 0.834623 -17.169163 -72.576046 -20.429162 -64.128182 -123.854989 -75.130455 -0.000002 -0.000045 -0.000000 101.660283 0.189230 -7.288320 0.000008 0.000004 -3.000001 -5.000206 -7.999124 0.000101 -8.186686 56.757677 9.506111 -45.827117 121.704299 50.146265 -0.000001 0.000000 -0.000000 105.173186 -0.112035 5.874921 -0.000005 -0.000027 2.999999 -5.000166 7.998745 -0.000159 1.840057 -177.121490 4.027536 -179.999991 0.000005 -1.143997 172.222168 -3.082431 -0.628817 -0.000003 0.000004 0.121304 70.062667 6.884509 2.075858 25.456959 -7.355614 -0.000001 5.811510 177.211389 -1.453078 -0.000005 -0.000004 -1.213801 -5.002057 2.889850 0.233333 0.000000 -0.000000 -0.051320 68.494257 -6.919229 -2.093059 25.456952 7.355611 0.000001 
